<?xml version="1.0" encoding="UTF-8" standalone="no"?>
<svg
   xmlns:dc="http://purl.org/dc/elements/1.1/"
   xmlns:cc="http://creativecommons.org/ns#"
   xmlns:rdf="http://www.w3.org/1999/02/22-rdf-syntax-ns#"
   xmlns:svg="http://www.w3.org/2000/svg"
   xmlns="http://www.w3.org/2000/svg"
   xmlns:sodipodi="http://sodipodi.sourceforge.net/DTD/sodipodi-0.dtd"
   xmlns:inkscape="http://www.inkscape.org/namespaces/inkscape"
   sodipodi:docname="logo-md.svg"
   inkscape:version="1.0 (4035a4f, 2020-05-01)"
   id="svg8"
   version="1.1"
   viewBox="0 0 210 297"
   height="297mm"
   width="210mm">
  <defs
     id="defs2" />
  <sodipodi:namedview
     inkscape:window-maximized="0"
     inkscape:window-y="1080"
     inkscape:window-x="0"
     inkscape:window-height="1080"
     inkscape:window-width="1920"
     showgrid="false"
     inkscape:document-rotation="0"
     inkscape:current-layer="layer1"
     inkscape:document-units="mm"
     inkscape:cy="522.88182"
     inkscape:cx="160.01472"
     inkscape:zoom="0.98994949"
     inkscape:pageshadow="2"
     inkscape:pageopacity="0.0"
     borderopacity="1.0"
     bordercolor="#666666"
     pagecolor="#ffffff"
     id="base" />
  <metadata
     id="metadata5">
    <rdf:RDF>
      <cc:Work
         rdf:about="">
        <dc:format>image/svg+xml</dc:format>
        <dc:type
           rdf:resource="http://purl.org/dc/dcmitype/StillImage" />
        <dc:title />
      </cc:Work>
    </rdf:RDF>
  </metadata>
  <g
     id="layer1"
     inkscape:groupmode="layer"
     inkscape:label="Layer 1">
    <g
       transform="matrix(0.98268071,0,0,1,1.5664913,-0.99564813)"
       id="g126">
      <path
         id="path130"
         d="m 43.013648,213.03535 c -0.515986,-0.13295 -0.696975,-0.55188 -0.723594,-1.67489 -0.0159,-0.67076 0.06066,-0.84107 0.579039,-1.28808 0.328547,-0.28331 1.010916,-0.64177 1.516374,-0.79658 0.505459,-0.1548 1.077152,-0.33265 1.270428,-0.39521 0.243346,-0.0788 -0.519719,-0.32666 -2.48134,-0.80608 -5.371748,-1.31287 -9.379542,-3.23534 -11.835889,-5.67746 -2.075858,-2.06385 -3.10755,-4.36244 -3.677463,-8.19333 -0.88963,-5.98001 -1.562083,-7.38256 -4.354988,-9.08327 -1.504473,-0.91613 -1.604565,-0.92788 -4.629308,-0.54325 -2.445419,0.31096 -3.629434,0.20666 -5.040989,-0.44407 -2.267234,-1.0452 -3.161081,-1.24564 -5.3679986,-1.20375 -1.9726144,0.0374 -2.0328209,0.0282 -2.435651,-0.37448 -0.2271713,-0.22707 -0.6431322,-0.53503 -0.9243564,-0.68434 -0.2812223,-0.14932 -0.4663946,-0.33451 -0.4114945,-0.41153 0.054902,-0.077 0.181829,-0.515 0.2820604,-0.97329 0.2029535,-0.92794 0.3915556,-1.1832 1.1836087,-1.60195 0.4914121,-0.2598 0.5379106,-0.35677 0.4906475,-1.02321 -0.1190382,-1.67846 1.2860403,-2.08487 10.9418629,-3.16486 4.158443,-0.46511 4.726418,-0.66145 7.410412,-2.56162 1.926035,-1.36356 2.528058,-1.67729 3.21863,-1.67729 0.675915,0 0.752933,0.34903 0.40149,1.81944 -0.169363,0.70861 -0.30755,1.3395 -0.307081,1.40197 5.51e-4,0.0625 0.480988,0.39632 1.06782,0.74186 2.588286,1.52408 3.768522,3.80182 5.461343,10.53988 0.363365,1.44633 0.871134,3.23752 1.128375,3.98043 0.951201,2.74703 2.524338,4.81991 4.34172,5.72099 1.118303,0.55446 3.070087,0.89514 4.430698,0.77336 3.012534,-0.26962 6.409496,-2.66197 12.610415,-8.88103 5.072845,-5.08769 5.880514,-5.64428 8.180592,-5.63754 0.707642,0.002 1.968161,0.0624 2.801156,0.13394 1.479321,0.12715 1.543424,0.11796 2.757046,-0.3951 0.997265,-0.4216 1.605297,-0.85764 3.08054,-2.20918 3.479803,-3.18802 4.611941,-4.10308 5.610061,-4.53436 3.357221,-1.45063 6.286321,0.47438 13.093877,8.60534 l 2.154418,2.57324 1.334215,0.18116 c 2.394266,0.32508 4.057626,0.66352 6.046436,1.23025 l 1.95517,0.55716 1.75731,-0.57072 c 1.94403,-0.63135 3.92417,-1.06421 6.53593,-1.42874 0.94974,-0.13256 1.7873,-0.29876 1.8612,-0.36933 0.0739,-0.0706 1.19063,-1.38339 2.48158,-2.91738 5.53257,-6.57414 8.09173,-8.60626 10.83835,-8.60626 1.58117,0 2.71055,0.70162 6.16426,3.82947 2.66174,2.4106 3.34441,2.94023 4.3347,3.36296 1.15434,0.49275 1.20591,0.49949 2.87512,0.37589 0.93484,-0.0692 2.19597,-0.12453 2.80252,-0.1229 2.21767,0.006 3.31204,0.76654 8.09117,5.62335 4.74548,4.82259 8.12814,7.50706 10.63246,8.43787 1.38346,0.5142 2.52198,0.62579 4.04372,0.39634 1.72481,-0.26008 3.09155,-0.92014 4.19032,-2.02369 1.58923,-1.59617 2.26513,-3.16451 3.6563,-8.48396 0.50432,-1.92844 1.13011,-4.11408 1.39064,-4.85699 0.93701,-2.67191 2.36523,-4.60978 4.115,-5.58338 1.05642,-0.58781 1.10701,-0.79031 0.6186,-2.47624 -0.2392,-0.82571 -0.25291,-1.07618 -0.0694,-1.26791 0.52808,-0.55175 1.52501,-0.14267 4.04354,1.65923 0.75818,0.54245 1.9575,1.22848 2.66514,1.5245 1.14169,0.47761 1.65928,0.57705 4.59508,0.88285 4.56329,0.47533 8.66719,1.07218 9.37513,1.36347 1.24225,0.51114 1.4691,0.84163 1.38723,2.02087 -0.0228,0.32871 0.042,0.59765 0.14401,0.59765 0.41806,0 1.32013,0.85607 1.48175,1.40617 0.46947,1.59792 0.47017,1.59239 -0.24145,1.88664 -0.3604,0.14902 -0.70297,0.40128 -0.76127,0.56058 -0.15072,0.41174 -0.81226,0.50906 -2.6793,0.39415 -1.79824,-0.11068 -2.63605,0.0815 -5.08949,1.16731 -1.48027,0.65513 -2.67225,0.75078 -5.23046,0.41971 -2.8138,-0.36414 -2.84533,-0.36025 -4.38025,0.54066 -2.73407,1.60472 -3.52969,3.18497 -4.29295,8.52637 -0.59437,4.15962 -1.63989,6.6245 -3.70613,8.73743 -2.32511,2.37763 -6.46673,4.37424 -11.78071,5.67927 -1.53919,0.378 -2.75429,0.74931 -2.70025,0.82514 0.054,0.0758 0.2456,0.13787 0.42567,0.13787 0.18007,0 0.82854,0.21714 1.44105,0.48253 1.56628,0.67867 1.97713,1.47358 1.49013,2.88306 -0.17853,0.51666 -0.30947,0.62937 -0.82943,0.71395 -0.84603,0.13762 -2.30276,-0.0313 -5.06333,-0.58721 -3.5738,-0.71964 -4.8323,-0.82037 -6.62498,-0.53022 -5.78015,0.9355 -6.63823,1.03727 -9.51045,1.12794 -5.93746,0.18744 -8.51289,-0.78889 -9.61948,-3.64666 -0.0957,-0.24713 -0.21865,-0.22846 -1.26281,0.19177 -2.81364,1.13238 -6.89376,1.76953 -11.38081,1.77725 -5.46884,0.009 -9.18883,-0.91911 -11.63649,-2.90448 l -1.15237,-0.93472 -1.13506,0.85233 c -1.38739,1.0418 -2.69931,1.45598 -4.18943,1.32262 -1.09204,-0.0977 -2.85384,-0.75541 -4.01198,-1.49768 l -0.735208,-0.47121 -1.044894,0.91962 c -1.656889,1.45826 -4.0895,2.33754 -7.909485,2.85893 -1.892061,0.25825 -7.789368,0.11608 -9.88543,-0.2383 -2.043217,-0.34546 -4.466084,-0.98247 -5.552619,-1.45989 -0.477546,-0.20983 -0.899279,-0.38151 -0.937184,-0.38151 -0.0379,0 -0.172332,0.2993 -0.298728,0.6651 -0.937401,2.71295 -5.425532,3.83577 -12.353513,3.09057 -1.169461,-0.12579 -3.44088,-0.45411 -5.047596,-0.7296 -3.388262,-0.58096 -3.71032,-0.57115 -7.883986,0.24004 -2.94614,0.57262 -4.866685,0.77301 -5.599289,0.58425 z m 56.420823,-41.6446 c -5.007318,-0.44656 -10.847951,-1.75391 -14.455365,-3.23565 -3.924288,-1.61189 -6.942957,-3.90812 -8.328743,-6.33548 -1.328878,-2.32767 -1.280245,-1.6962 -1.28754,-16.71782 -0.0063,-13.02072 0.0062,-13.52464 0.365266,-14.7422 1.408243,-4.77473 5.748277,-8.38945 11.257547,-9.37619 1.213438,-0.21733 3.468872,-0.25184 16.530704,-0.25297 9.13357,-8e-4 15.7775,-0.0661 16.77126,-0.16478 7.92577,-0.78728 14.70105,-6.70321 15.71613,-13.72279 0.10525,-0.7277 0.19134,-3.92479 0.19134,-7.104631 v -5.781532 h 6.24026 c 3.72475,0 6.63288,0.06908 7.21427,0.171364 5.79068,1.018788 9.48365,4.945731 11.61711,12.353089 1.54519,5.365 2.14424,9.14404 2.14527,13.5334 0.002,4.5041 -0.58955,7.75208 -2.15676,11.86106 -1.96328,5.14732 -3.79678,8.10144 -6.20723,10.00097 -1.31552,1.03668 -2.73832,1.69732 -4.67371,2.17011 -1.3978,0.34146 -1.51845,0.34345 -23.87482,0.39464 l -22.46991,0.0514 v 1.50603 1.50602 l 14.29068,0.0408 14.29068,0.0408 -0.0116,5.49844 c -0.0109,5.19031 -0.0347,5.57027 -0.42334,6.78001 -1.32834,4.13441 -5.19788,7.13991 -11.90839,9.24937 -6.11105,1.92102 -14.51801,2.83966 -20.833139,2.27646 z m 22.927399,-8.51338 c 1.90522,-0.82323 3.01875,-2.37746 3.03213,-4.23216 0.0254,-3.51234 -4.137,-5.79885 -7.7035,-4.23176 -3.25995,1.43239 -3.96733,5.22626 -1.40157,7.51702 1.5395,1.37449 4.14366,1.78053 6.07294,0.9469 z M 60.468231,144.31914 c -1.98812,-0.16942 -3.520228,-0.55093 -5.131519,-1.2778 -4.247778,-1.91624 -7.094074,-5.57896 -8.729169,-11.23302 -2.31599,-8.00856 -2.592231,-14.51928 -0.92302,-21.75472 1.158874,-5.0233 2.342939,-7.71611 4.460638,-10.144397 2.324638,-2.665575 5.704797,-4.603015 9.607433,-5.506789 l 1.542751,-0.35727 21.32115,-0.08406 21.321145,-0.08406 0.0526,-1.553909 0.0526,-1.553908 H 89.686972 75.331087 l 0.07002,-6.653916 c 0.05954,-5.658765 0.116822,-6.796931 0.382965,-7.610167 1.643609,-5.022273 6.322756,-7.358972 17.217297,-8.59807 7.797911,-0.886902 18.746621,-0.67772 25.548611,0.488121 4.11749,0.705724 7.57971,2.297363 10.16352,4.672315 2.25205,2.07001 3.48428,4.441523 3.80845,7.329523 0.22428,1.998094 0.22252,23.552487 -0.002,25.512837 -0.22931,2.00165 -0.58868,3.15895 -1.46072,4.70418 -1.34056,2.37545 -3.78048,4.48969 -6.53555,5.66322 -2.90659,1.23805 -1.72281,1.16455 -20.40214,1.26682 -18.125876,0.0992 -17.428355,0.0654 -20.40213,0.98906 -5.056709,1.57057 -9.452101,5.47455 -11.088312,9.84863 -0.789823,2.11142 -0.814032,2.35221 -0.929348,9.24376 l -0.113412,6.77344 -4.87078,0.0188 c -2.678929,0.0104 -5.491115,-0.034 -6.249303,-0.0986 z M 89.614217,84.127097 c 1.365958,-0.402781 2.899908,-1.797329 3.304541,-3.004229 0.584272,-1.742718 0.08088,-3.527664 -1.344903,-4.76881 -1.012139,-0.881068 -1.954642,-1.242575 -3.462192,-1.327965 -1.140397,-0.06459 -1.449817,-0.01781 -2.446091,0.369875 -2.031764,0.790622 -3.183476,2.368127 -3.172882,4.345921 0.01735,3.237464 3.578097,5.430064 7.121527,4.385208 z"
         style="fill:#ffd43b;fill-opacity:1;stroke-width:0.171154" />
      <path
         id="path128"
         d="m 43.013648,213.03535 c -0.515986,-0.13295 -0.696975,-0.55188 -0.723594,-1.67489 -0.0159,-0.67076 0.06066,-0.84107 0.579039,-1.28808 0.328547,-0.28331 1.010916,-0.64177 1.516374,-0.79658 0.505459,-0.1548 1.077152,-0.33265 1.270428,-0.39521 0.243346,-0.0788 -0.519719,-0.32666 -2.48134,-0.80608 -5.371748,-1.31287 -9.379542,-3.23534 -11.835889,-5.67746 -2.075858,-2.06385 -3.10755,-4.36244 -3.677463,-8.19333 -0.88963,-5.98001 -1.562083,-7.38256 -4.354988,-9.08327 -1.504473,-0.91613 -1.604565,-0.92788 -4.629308,-0.54325 -2.445419,0.31096 -3.629434,0.20666 -5.040989,-0.44407 -2.267234,-1.0452 -3.161081,-1.24564 -5.3679986,-1.20375 -1.9726144,0.0374 -2.0328209,0.0282 -2.435651,-0.37448 -0.2271713,-0.22707 -0.6431322,-0.53503 -0.9243564,-0.68434 -0.2812223,-0.14932 -0.4663946,-0.33451 -0.4114945,-0.41153 0.054902,-0.077 0.181829,-0.515 0.2820604,-0.97329 0.2029535,-0.92794 0.3915556,-1.1832 1.1836087,-1.60195 0.4914121,-0.2598 0.5379106,-0.35677 0.4906475,-1.02321 -0.1190382,-1.67846 1.2860403,-2.08487 10.9418629,-3.16486 4.158443,-0.46511 4.726418,-0.66145 7.410412,-2.56162 1.926035,-1.36356 2.528058,-1.67729 3.21863,-1.67729 0.675915,0 0.752933,0.34903 0.40149,1.81944 -0.169363,0.70861 -0.30755,1.3395 -0.307081,1.40197 5.51e-4,0.0625 0.480988,0.39632 1.06782,0.74186 2.588286,1.52408 3.768522,3.80182 5.461343,10.53988 0.363365,1.44633 0.871134,3.23752 1.128375,3.98043 0.951201,2.74703 2.524338,4.81991 4.34172,5.72099 1.118303,0.55446 3.070087,0.89514 4.430698,0.77336 3.012534,-0.26962 6.409496,-2.66197 12.610415,-8.88103 5.072845,-5.08769 5.880514,-5.64428 8.180592,-5.63754 0.707642,0.002 1.968161,0.0624 2.801156,0.13394 1.479321,0.12715 1.543424,0.11796 2.757046,-0.3951 0.997265,-0.4216 1.605297,-0.85764 3.08054,-2.20918 3.479803,-3.18802 4.611941,-4.10308 5.610061,-4.53436 3.357221,-1.45063 6.286321,0.47438 13.093877,8.60534 l 2.154418,2.57324 1.334215,0.18116 c 4.758786,0.64611 8.331736,1.73569 11.167676,3.4056 1.893,1.11467 4.03561,3.19355 5.36784,5.20816 1.56844,2.37184 3.14141,6.39557 3.12991,8.00649 -0.0145,2.04082 -0.94357,3.02083 -4.26089,4.49471 -1.06663,0.4739 -2.45853,1.25244 -3.09313,1.7301 -1.40659,1.05873 -2.70863,1.47296 -4.20817,1.33876 -1.09204,-0.0977 -2.85384,-0.75541 -4.01198,-1.49768 l -0.735208,-0.47121 -1.044894,0.91962 c -1.656889,1.45826 -4.0895,2.33754 -7.909485,2.85893 -1.892061,0.25825 -7.789368,0.11608 -9.88543,-0.2383 -2.043217,-0.34546 -4.466084,-0.98247 -5.552619,-1.45989 -0.477546,-0.20983 -0.899279,-0.38151 -0.937184,-0.38151 -0.0379,0 -0.172332,0.2993 -0.298728,0.6651 -0.937401,2.71295 -5.425532,3.83577 -12.353513,3.09057 -1.169461,-0.12579 -3.44088,-0.45411 -5.047596,-0.7296 -3.388262,-0.58096 -3.71032,-0.57115 -7.883986,0.24004 -2.94614,0.57262 -4.866685,0.77301 -5.599289,0.58425 z m 17.454583,-68.71621 c -1.98812,-0.16942 -3.520228,-0.55093 -5.131519,-1.2778 -4.247778,-1.91624 -7.094074,-5.57896 -8.729169,-11.23302 -2.31599,-8.00856 -2.592231,-14.51928 -0.92302,-21.75472 1.158874,-5.0233 2.342939,-7.71611 4.460638,-10.144397 2.324638,-2.665575 5.704797,-4.603015 9.607433,-5.506789 l 1.542751,-0.35727 21.32115,-0.08406 21.321145,-0.08406 0.0526,-1.553909 0.0526,-1.553908 H 89.686972 75.331087 l 0.07002,-6.653916 c 0.05954,-5.658765 0.116822,-6.796931 0.382965,-7.610167 1.643609,-5.022273 6.322756,-7.358972 17.217297,-8.59807 7.797911,-0.886902 18.746621,-0.67772 25.548611,0.488121 4.11749,0.705724 7.57971,2.297363 10.16352,4.672315 2.25205,2.07001 3.48428,4.441523 3.80845,7.329523 0.22428,1.998094 0.22252,23.552487 -0.002,25.512837 -0.22931,2.00165 -0.58868,3.15895 -1.46072,4.70418 -1.34056,2.37545 -3.78048,4.48969 -6.53555,5.66322 -2.90659,1.23805 -1.72281,1.16455 -20.40214,1.26682 -18.125876,0.0992 -17.428355,0.0654 -20.40213,0.98906 -5.056709,1.57057 -9.452101,5.47455 -11.088312,9.84863 -0.789823,2.11142 -0.814032,2.35221 -0.929348,9.24376 l -0.113412,6.77344 -4.87078,0.0188 c -2.678929,0.0104 -5.491115,-0.034 -6.249303,-0.0986 z M 89.614217,84.127097 c 1.365958,-0.402781 2.899908,-1.797329 3.304541,-3.004229 0.584272,-1.742718 0.08088,-3.527664 -1.344903,-4.76881 -1.012139,-0.881068 -1.954642,-1.242575 -3.462192,-1.327965 -1.140397,-0.06459 -1.449817,-0.01781 -2.446091,0.369875 -2.031764,0.790622 -3.183476,2.368127 -3.172882,4.345921 0.01735,3.237464 3.578097,5.430064 7.121527,4.385208 z"
         style="fill:#4b8bbe;fill-opacity:1;stroke-width:0.171154" />
    </g>
    <rect
       y="54.719456"
       x="0.064925097"
       height="135.84575"
       width="164.18254"
       id="rect867"
       style="fill:#3bff9e;fill-opacity:0;stroke-width:0.264583" />
    <rect
       ry="0.80125397"
       y="54.719456"
       x="0.064925097"
       height="165.44638"
       width="210.51582"
       id="rect869"
       style="fill:#3bff9e;fill-opacity:0;stroke-width:0.264583" />
  </g>
</svg>
